<svg xmlns="http://www.w3.org/2000/svg" version="1.1" xmlns:xlink="http://www.w3.org/1999/xlink" xmlns:svgjs="http://svgjs.dev/svgjs" width="2000" height="929" viewBox="0 0 2000 929"><g transform="matrix(1,0,0,1,-1.2121212121212466,1.1768130363442992)"><svg viewBox="0 0 396 184" data-background-color="#ffffff" preserveAspectRatio="xMidYMid meet" height="929" width="2000" xmlns="http://www.w3.org/2000/svg" xmlns:xlink="http://www.w3.org/1999/xlink"><g id="tight-bounds" transform="matrix(1,0,0,1,0.2400000000000091,-0.23308245283891438)"><svg viewBox="0 0 395.52 184.46616490567783" height="184.46616490567783" width="395.52"><g><svg viewBox="0 0 395.52 184.46616490567783" height="184.46616490567783" width="395.52"><g><svg viewBox="0 0 395.52 184.46616490567783" height="184.46616490567783" width="395.52"><g id="textblocktransform"><svg viewBox="0 0 395.52 184.46616490567783" height="184.46616490567783" width="395.52" id="textblock"><g><svg viewBox="0 0 395.52 82.49548088064888" height="82.49548088064888" width="395.52"><g transform="matrix(1,0,0,1,0,0)"><svg width="395.52" viewBox="2.65 -35.5 172.59 36" height="82.49548088064888" data-palette-color="#0275d8"><path d="M17.4 0.5L17.4 0.5Q12.75 0.5 9.53-1.13 6.3-2.75 4.6-5.78 2.9-8.8 2.7-13.05L2.7-13.05Q2.65-15.1 2.65-17.45 2.65-19.8 2.7-21.95L2.7-21.95Q2.9-26.15 4.63-29.2 6.35-32.25 9.58-33.88 12.8-35.5 17.4-35.5L17.4-35.5Q20.8-35.5 23.5-34.6 26.2-33.7 28.1-32.13 30-30.55 31.05-28.45 32.1-26.35 32.15-23.9L32.15-23.9Q32.2-23.45 31.88-23.15 31.55-22.85 31.1-22.85L31.1-22.85 26.35-22.85Q25.8-22.85 25.45-23.13 25.1-23.4 24.95-24.05L24.95-24.05Q24.15-27.35 22.2-28.55 20.25-29.75 17.35-29.75L17.35-29.75Q14-29.75 12-27.88 10-26 9.85-21.7L9.85-21.7Q9.7-17.6 9.85-13.3L9.85-13.3Q10-9 12-7.13 14-5.25 17.35-5.25L17.35-5.25Q20.25-5.25 22.23-6.48 24.2-7.7 24.95-10.95L24.95-10.95Q25.1-11.65 25.45-11.9 25.8-12.15 26.35-12.15L26.35-12.15 31.1-12.15Q31.55-12.15 31.88-11.85 32.2-11.55 32.15-11.1L32.15-11.1Q32.1-8.65 31.05-6.55 30-4.45 28.1-2.88 26.2-1.3 23.5-0.4 20.8 0.5 17.4 0.5ZM40.3 0L35.95 0Q35.55 0 35.22-0.3 34.9-0.6 34.9-1.05L34.9-1.05Q34.9-1.25 35-1.5L35-1.5 47.05-33.75Q47.2-34.25 47.62-34.63 48.05-35 48.8-35L48.8-35 54.25-35Q55-35 55.4-34.63 55.8-34.25 56-33.75L56-33.75 68.05-1.5Q68.1-1.25 68.1-1.05L68.1-1.05Q68.1-0.6 67.8-0.3 67.5 0 67.1 0L67.1 0 62.75 0Q62.05 0 61.72-0.33 61.4-0.65 61.3-0.95L61.3-0.95 58.95-7.05 44.1-7.05 41.75-0.95Q41.65-0.65 41.32-0.33 41 0 40.3 0L40.3 0ZM51.5-28.25L45.85-12.8 57.2-12.8 51.5-28.25ZM78.5 0L73.94 0Q73.44 0 73.09-0.35 72.75-0.7 72.75-1.2L72.75-1.2 72.75-33.75Q72.75-34.3 73.09-34.65 73.44-35 73.94-35L73.94-35 86.89-35Q92.94-35 96.44-32.2 99.94-29.4 99.94-24.05L99.94-24.05Q99.94-20.35 98.12-17.9 96.3-15.45 93.25-14.35L93.25-14.35 100.55-1.6Q100.69-1.3 100.69-1.05L100.69-1.05Q100.69-0.6 100.37-0.3 100.05 0 99.64 0L99.64 0 95.09 0Q94.25 0 93.8-0.45 93.34-0.9 93.09-1.35L93.09-1.35 86.64-13.2 79.69-13.2 79.69-1.2Q79.69-0.7 79.37-0.35 79.05 0 78.5 0L78.5 0ZM79.69-29.45L79.69-18.85 86.75-18.85Q89.8-18.85 91.3-20.23 92.8-21.6 92.8-24.1L92.8-24.1Q92.8-26.6 91.32-28.03 89.84-29.45 86.75-29.45L86.75-29.45 79.69-29.45ZM129.29 0L107.59 0Q107.09 0 106.74-0.35 106.39-0.7 106.39-1.2L106.39-1.2 106.39-33.8Q106.39-34.3 106.74-34.65 107.09-35 107.59-35L107.59-35 112.24-35Q112.74-35 113.09-34.65 113.44-34.3 113.44-33.8L113.44-33.8 113.44-5.95 129.29-5.95Q129.84-5.95 130.19-5.6 130.54-5.25 130.54-4.7L130.54-4.7 130.54-1.2Q130.54-0.7 130.19-0.35 129.84 0 129.29 0L129.29 0ZM162.54 0L157.04 0Q156.24 0 155.79-0.4 155.34-0.8 155.14-1.4L155.14-1.4 144.44-33.5Q144.34-33.75 144.34-33.95L144.34-33.95Q144.34-34.4 144.64-34.7 144.94-35 145.39-35L145.39-35 149.79-35Q150.49-35 150.86-34.63 151.24-34.25 151.34-33.9L151.34-33.9 159.79-8.15 168.24-33.9Q168.34-34.25 168.71-34.63 169.09-35 169.79-35L169.79-35 174.19-35Q174.59-35 174.91-34.7 175.24-34.4 175.24-33.95L175.24-33.95Q175.24-33.75 175.14-33.5L175.14-33.5 164.44-1.4Q164.24-0.8 163.79-0.4 163.34 0 162.54 0L162.54 0Z" opacity="1" transform="matrix(1,0,0,1,0,0)" fill="#0275d8" class="wordmark-text-0" data-fill-palette-color="primary" id="text-0"></path></svg></g></svg></g><g transform="matrix(1,0,0,1,0,101.97068402502896)"><svg viewBox="0 0 395.52 82.49548088064888" height="82.49548088064888" width="395.52"><g transform="matrix(1,0,0,1,0,0)"><svg width="395.52" viewBox="3 -35.5 172.6 36" height="82.49548088064888" data-palette-color="#0275d8"><path d="M9 0L3 0 3-34.15Q3-34.55 3.25-34.77 3.5-35 4.25-35L4.25-35 9.25-35Q11.65-35 13.48-34.15 15.3-33.3 16.53-31.45 17.75-29.6 18.38-26.63 19-23.65 19-19.35L19-19.35Q19-13.3 18.23-9.5 17.45-5.7 16.05-3.63 14.65-1.55 12.85-0.78 11.05 0 9 0L9 0ZM5.25-32.85L5.25-2.2 9-2.2Q10.45-2.2 11.8-2.78 13.15-3.35 14.2-5.15 15.25-6.95 15.9-10.38 16.55-13.8 16.55-19.5L16.55-19.5Q16.55-23.1 16.1-25.65 15.65-28.2 14.75-29.8 13.85-31.4 12.45-32.13 11.05-32.85 9.15-32.85L9.15-32.85 5.25-32.85ZM50.11 0L38.06 0 38.06-34.4Q38.06-34.4 38.16-34.7 38.26-35 38.71-35L38.71-35 50.66-35Q50.66-34.1 50.64-33.65 50.61-33.2 50.51-33.05 50.41-32.9 50.16-32.9L50.16-32.9 40.31-32.9 40.31-2.1 50.66-2.1Q50.66-1.15 50.61-0.7 50.56-0.25 50.46-0.13 50.36 0 50.11 0L50.11 0ZM49.06-18.05L38.76-18.05 38.76-20.2 49.56-20.2Q49.56-18.9 49.51-18.48 49.46-18.05 49.06-18.05L49.06-18.05ZM74.62 0.5L74.62 0.5Q71.12 0.5 69.57-0.43 68.02-1.35 68.02-2.05L68.02-2.05Q68.02-2.45 68.2-2.88 68.37-3.3 68.77-3.65L68.77-3.65Q69.57-2.9 70.9-2.35 72.22-1.8 74.52-1.8L74.52-1.8Q77.92-1.8 79.42-3.63 80.92-5.45 80.92-8.3L80.92-8.3Q80.92-10.55 80.12-12.33 79.32-14.1 77.22-16.25L77.22-16.25 71.67-21.85Q69.97-23.7 69.07-25.33 68.17-26.95 68.17-28.9L68.17-28.9Q68.17-31.8 70.35-33.65 72.52-35.5 76.42-35.5L76.42-35.5Q79.72-35.5 81.2-34.8 82.67-34.1 82.67-33.4L82.67-33.4Q82.67-33.05 82.5-32.68 82.32-32.3 82.02-32L82.02-32Q81.42-32.5 80-32.98 78.57-33.45 76.47-33.45L76.47-33.45Q73.82-33.45 72.17-32.2 70.52-30.95 70.52-28.95L70.52-28.95Q70.52-27.35 71.35-26.05 72.17-24.75 73.42-23.4L73.42-23.4 79.57-17.25Q81.72-15 82.5-13.03 83.27-11.05 83.27-8.55L83.27-8.55Q83.27-5.95 82.4-3.9 81.52-1.85 79.62-0.68 77.72 0.5 74.62 0.5ZM101.93 0L101.93 0 101.93-33.8Q101.93-34.4 102.03-34.65 102.13-34.9 102.63-34.95 103.13-35 104.23-35L104.23-35 104.23-0.6Q104.23-0.3 104.13-0.18 104.03-0.05 103.56-0.03 103.08 0 101.93 0ZM132.64 0.5L132.64 0.5Q130.49 0.5 128.77-0.2 127.04-0.9 125.82-2.75 124.59-4.6 123.94-8.08 123.29-11.55 123.29-17.05L123.29-17.05Q123.29-22.8 124.04-26.4 124.79-30 126.19-31.98 127.59-33.95 129.49-34.73 131.39-35.5 133.74-35.5L133.74-35.5Q135.99-35.5 137.47-34.83 138.94-34.15 138.94-33.3L138.94-33.3Q138.94-32.95 138.87-32.58 138.79-32.2 138.59-31.85L138.59-31.85Q137.84-32.5 136.77-32.88 135.69-33.25 134.14-33.25L134.14-33.25Q132.19-33.25 130.64-32.55 129.09-31.85 127.97-30.1 126.84-28.35 126.24-25.2 125.64-22.05 125.64-17.2L125.64-17.2Q125.64-12 126.19-8.93 126.74-5.85 127.72-4.3 128.69-2.75 129.97-2.25 131.24-1.75 132.74-1.75L132.74-1.75Q134.04-1.75 134.99-2.13 135.94-2.5 136.52-3 137.09-3.5 137.19-3.85L137.19-3.85 137.19-17.7 131.89-17.7 131.89-19.05Q131.89-19.7 132.59-19.7L132.59-19.7 139.39-19.7 139.34-2.55Q139.04-2.1 138.27-1.38 137.49-0.65 136.12-0.08 134.74 0.5 132.64 0.5ZM174.95 0L173.45 0 167.2-14.15Q167.1-14.45 166.53-15.85 165.95-17.25 165.1-19.3 164.25-21.35 163.35-23.55 162.45-25.75 161.65-27.7 160.85-29.65 160.35-30.85 159.85-32.05 159.85-32.05L159.85-32.05 158.75-33.6 159.05-35 160.6-35 166.7-21.1Q166.8-20.8 167.38-19.4 167.95-18 168.78-16 169.6-14 170.5-11.85 171.4-9.7 172.18-7.8 172.95-5.9 173.45-4.73 173.95-3.55 173.95-3.55L173.95-3.55 175.3-1.4 174.95 0ZM158.45 0L158.45 0 158.45-34.4Q158.45-35 159.05-35L159.05-35 160.7-34.4 160.5-31.55Q160.55-31.3 160.58-29.9 160.6-28.5 160.63-26.48 160.65-24.45 160.65-22.18 160.65-19.9 160.68-17.88 160.7-15.85 160.7-14.48 160.7-13.1 160.7-12.9L160.7-12.9 160.7-0.6Q160.7-0.3 160.6-0.18 160.5-0.05 160.03-0.03 159.55 0 158.45 0ZM174.95 0L174.95 0 173.35-0.6 173.5-3.95Q173.45-4.2 173.43-5.6 173.4-7 173.4-9.03 173.4-11.05 173.38-13.28 173.35-15.5 173.35-17.53 173.35-19.55 173.35-20.9 173.35-22.25 173.35-22.45L173.35-22.45 173.35-34.4Q173.35-34.7 173.43-34.83 173.5-34.95 173.98-34.98 174.45-35 175.6-35L175.6-35 175.6-0.6Q175.6 0 174.95 0Z" opacity="1" transform="matrix(1,0,0,1,0,0)" fill="#0275d8" class="slogan-text-1" data-fill-palette-color="secondary" id="text-1"></path></svg></g></svg></g></svg></g></svg></g><g></g></svg></g><defs></defs></svg><rect width="395.52" height="184.46616490567783" fill="none" stroke="none" visibility="hidden"></rect></g></svg></g></svg>